<svg width="198" height="64" viewBox="0 0 198 64" fill="none" xmlns="http://www.w3.org/2000/svg">
<path d="M16.9902 32.368C16.576 32.8349 16.0282 33.1625 15.4214 33.3064C15.0381 33.394 14.6412 33.4041 14.2541 33.3359C13.8669 33.2677 13.4972 33.1226 13.1669 32.9092C12.8365 32.6959 12.5522 32.4185 12.3305 32.0934C12.1088 31.7683 11.9542 31.4022 11.876 31.0164C11.7978 30.6306 11.7974 30.2331 11.8748 29.8472C11.9523 29.4613 12.1061 29.0948 12.3271 28.7693C12.5482 28.4438 12.832 28.1658 13.1619 27.9518C13.4919 27.7378 13.8612 27.592 14.2482 27.523C14.9634 27.3912 15.702 27.5307 16.3201 27.9143C16.9382 28.2979 17.3916 28.8981 17.592 29.598C17.6549 29.8071 17.7095 29.7309 17.8147 29.6546C19.9217 28.1248 22.0295 26.5962 24.1383 25.0688C25.3109 24.2203 26.4898 23.3805 27.6616 22.5309C28.6576 21.8089 29.6475 21.0787 30.6396 20.3514C30.6569 20.3354 30.6724 20.3175 30.6857 20.298C30.0654 19.9687 29.5809 19.4309 29.3176 18.7791C29.0542 18.1274 29.0289 17.4036 29.246 16.735C29.4462 16.1348 29.8336 15.6148 30.3511 15.2514C30.8686 14.8881 31.4888 14.7006 32.1207 14.7166C32.7525 14.7326 33.3625 14.9512 33.861 15.3402C34.3595 15.7292 34.7202 16.2682 34.8899 16.8778C35.0681 17.5387 35.0138 18.2408 34.7364 18.8664C34.4589 19.492 33.975 20.003 33.3659 20.3138L45.9435 29.7925C46.0592 29.2681 46.3159 28.7854 46.6858 28.3965C47.0556 28.0076 47.5246 27.7273 48.042 27.5859C48.43 27.4687 48.8387 27.4368 49.2402 27.4924C49.6417 27.5479 50.0264 27.6896 50.3682 27.9077C50.7282 28.1281 51.0368 28.4232 51.2734 28.7731C51.5099 29.123 51.6687 29.5196 51.7393 29.9362C51.8098 30.3527 51.7904 30.7796 51.6823 31.188C51.5742 31.5964 51.3799 31.9769 51.1126 32.3038C50.8453 32.6307 50.5111 32.8964 50.1326 33.0831C49.754 33.2698 49.3399 33.3731 48.9182 33.3861C48.4964 33.399 48.0768 33.3213 47.6875 33.1582C47.2983 32.995 46.9485 32.7503 46.6616 32.4404C46.5745 32.5033 46.568 32.6086 46.5386 32.6961C46.0367 34.1912 45.5374 35.6871 45.0408 37.184C44.0029 40.3311 42.9664 43.4787 41.9313 46.6268C41.8673 46.8204 41.8836 46.86 42.1012 46.8384C42.8617 46.7376 43.6312 46.9423 44.2415 47.4077C44.8518 47.8732 45.2534 48.5615 45.3584 49.3225C45.4275 49.7338 45.4046 50.1553 45.2915 50.5567C45.1784 50.9581 44.9778 51.3294 44.7043 51.644C44.2671 52.173 43.6591 52.5324 42.9854 52.6602C42.3117 52.7879 41.6145 52.6759 41.0145 52.3436C40.4144 52.0112 39.9493 51.4794 39.6993 50.84C39.4494 50.2007 39.4304 49.4939 39.6457 48.8421C39.6759 48.7483 39.7102 48.6558 39.755 48.5273L24.0875 48.3399C24.3368 48.8116 24.4555 49.3416 24.4313 49.8748C24.4071 50.4079 24.2409 50.9249 23.9499 51.3721C23.7345 51.7162 23.4482 52.0102 23.1101 52.2345C22.772 52.4587 22.39 52.6081 21.9895 52.6724C21.5711 52.7447 21.1421 52.7261 20.7316 52.6177C20.321 52.5093 19.9386 52.3138 19.6101 52.0443C19.2817 51.7749 19.015 51.4379 18.8282 51.0561C18.6413 50.6744 18.5387 50.2569 18.5272 49.8319C18.5158 49.4069 18.5957 48.9845 18.7617 48.5932C18.9277 48.2019 19.1758 47.8509 19.4892 47.5641C19.8026 47.2773 20.174 47.0614 20.5781 46.931C20.9822 46.8005 21.4096 46.7587 21.8313 46.8083C20.2194 42.0004 18.6112 37.2033 16.9902 32.368ZM18.2712 30.7458C19.5212 31.2542 20.7294 31.7437 21.936 32.2373C22.0165 32.257 22.0918 32.2938 22.1568 32.3452C22.2219 32.3965 22.2752 32.4613 22.3131 32.535C22.3511 32.6087 22.3728 32.6898 22.3768 32.7726C22.3808 32.8555 22.367 32.9382 22.3363 33.0153C22.3057 33.0923 22.2589 33.1619 22.1991 33.2193C22.1393 33.2767 22.0679 33.3206 21.9897 33.3481C21.9116 33.3755 21.8284 33.3858 21.7459 33.3783C21.6634 33.3708 21.5835 33.3457 21.5115 33.3047C20.8109 33.0209 20.1124 32.7319 19.4124 32.4466C18.9705 32.2665 18.5274 32.0891 18.0387 31.8918C19.6912 36.8204 21.3265 41.6978 22.9735 46.6101C23.0865 46.4788 23.1727 46.3793 23.2581 46.2791C24.3988 44.9431 25.5395 43.6071 26.6804 42.2712C26.7241 42.1995 26.7829 42.1381 26.8526 42.0913C26.9223 42.0445 27.0013 42.0134 27.0841 42C27.167 41.9867 27.2517 41.9915 27.3326 42.0141C27.4134 42.0367 27.4884 42.0765 27.5524 42.1309C27.6151 42.1859 27.6655 42.2536 27.7001 42.3295C27.7347 42.4055 27.7527 42.4879 27.7531 42.5714C27.7534 42.6549 27.736 42.7375 27.702 42.8137C27.668 42.89 27.6182 42.9581 27.5559 43.0136C26.5928 44.1398 25.6297 45.2661 24.6665 46.3923C24.4491 46.6468 24.2345 46.9038 23.9903 47.1932L39.7885 47.3814C39.688 47.2331 39.6191 47.13 39.5488 47.0279C38.6144 45.671 37.6802 44.314 36.7461 42.9569C36.6933 42.8952 36.6538 42.8233 36.63 42.7456C36.6063 42.6679 36.5989 42.5861 36.6082 42.5054C36.6175 42.4246 36.6434 42.3467 36.6842 42.2765C36.7251 42.2063 36.78 42.1453 36.8455 42.0973C36.9142 42.0493 36.9924 42.0168 37.0748 42.0019C37.1572 41.987 37.2418 41.9901 37.3229 42.011C37.404 42.0319 37.4796 42.0701 37.5446 42.1229C37.6096 42.1758 37.6624 42.2421 37.6994 42.3173C38.4203 43.367 39.1423 44.416 39.8654 45.4642C40.1371 45.8586 40.4095 46.2526 40.7104 46.6885C42.3443 41.7481 43.9613 36.8589 45.5935 31.9239C45.1145 32.1111 44.6839 32.2785 44.2541 32.4478C43.5121 32.7399 42.7704 33.0329 42.029 33.3266C41.9261 33.3741 41.8115 33.3901 41.6995 33.3724C41.5876 33.3548 41.4834 33.3044 41.4 33.2276C41.324 33.1613 41.2681 33.0751 41.2385 32.9787C41.209 32.8823 41.207 32.7796 41.2327 32.6821C41.2605 32.5726 41.3172 32.4726 41.3968 32.3927C41.4764 32.3127 41.5761 32.2556 41.6853 32.2275C42.4036 31.9445 43.1219 31.6616 43.8403 31.3789C44.3321 31.1852 44.8239 30.9914 45.3519 30.7834L32.6161 21.1858C32.6161 22.4705 32.6164 23.6862 32.616 24.9019C32.6159 25.2935 32.6224 25.6854 32.61 26.0767C32.6039 26.2049 32.5545 26.3272 32.47 26.4237C32.3855 26.5202 32.2709 26.5852 32.1448 26.6081C32.0187 26.6311 31.8885 26.6106 31.7756 26.55C31.6626 26.4894 31.5734 26.3923 31.5226 26.2745C31.4749 26.132 31.4576 25.981 31.4719 25.8313C31.4706 24.3479 31.4739 22.8645 31.4734 21.3811C31.4733 21.323 31.5164 21.2473 31.4152 21.1979L18.2712 30.7458ZM50.6323 30.4445C50.6362 30.2072 50.5929 29.9714 50.505 29.7509C50.4171 29.5305 50.2863 29.3297 50.1201 29.1604C49.954 28.991 49.7559 28.8565 49.5373 28.7645C49.3187 28.6726 49.0841 28.625 48.847 28.6247C48.4908 28.6216 48.1416 28.7243 47.8436 28.9198C47.5457 29.1153 47.3123 29.3949 47.173 29.7233C47.0338 30.0516 46.9949 30.4139 47.0613 30.7644C47.1277 31.1149 47.2963 31.4378 47.546 31.6922C47.7957 31.9467 48.1151 32.1213 48.4638 32.1941C48.8126 32.2668 49.1751 32.2343 49.5054 32.1008C49.8358 31.9672 50.1191 31.7386 50.3197 31.4438C50.5203 31.149 50.6291 30.8012 50.6323 30.4445ZM16.5628 30.4292C16.5633 29.9526 16.3752 29.4952 16.0397 29.1572C15.7042 28.8192 15.2486 28.628 14.7727 28.6256C14.2968 28.6232 13.8392 28.8098 13.5004 29.1444C13.1615 29.479 12.9688 29.9344 12.9645 30.411C12.9624 30.6481 13.0071 30.8834 13.096 31.1032C13.1849 31.323 13.3162 31.5231 13.4826 31.692C13.6489 31.8609 13.8468 31.9952 14.0651 32.0873C14.2834 32.1793 14.5177 32.2274 14.7545 32.2285C14.9914 32.2297 15.2262 32.1841 15.4453 32.0942C15.6645 32.0044 15.8639 31.8721 16.0319 31.7049C16.1999 31.5377 16.3332 31.3389 16.4244 31.12C16.5155 30.9011 16.5625 30.6663 16.5628 30.4292ZM32.0546 15.863C31.8176 15.8602 31.5825 15.9046 31.3628 15.9937C31.1431 16.0828 30.9434 16.2148 30.7751 16.3819C30.6069 16.5491 30.4736 16.748 30.3829 16.9673C30.2922 17.1865 30.246 17.4217 30.247 17.659C30.2456 17.8979 30.2918 18.1347 30.3827 18.3556C30.4736 18.5765 30.6075 18.7771 30.7766 18.9457C30.9457 19.1143 31.1465 19.2475 31.3675 19.3377C31.5885 19.4278 31.8252 19.473 32.0638 19.4707C32.3024 19.4684 32.5381 19.4186 32.7573 19.3242C32.9765 19.2298 33.1748 19.0927 33.3406 18.9209C33.5064 18.7491 33.6364 18.5459 33.723 18.3233C33.8097 18.1007 33.8512 17.863 33.8453 17.6242C33.8387 17.1536 33.647 16.7047 33.3117 16.3749C32.9764 16.0451 32.5246 15.8611 32.0546 15.863V15.863ZM44.2452 49.7281C44.2408 49.4906 44.1896 49.2564 44.0945 49.0388C43.9995 48.8212 43.8625 48.6245 43.6913 48.46C43.5202 48.2956 43.3183 48.1665 43.0973 48.0804C42.8762 47.9942 42.6404 47.9526 42.4032 47.9579C42.1661 47.9632 41.9323 48.0154 41.7153 48.1114C41.4984 48.2074 41.3025 48.3453 41.1388 48.5173C40.9752 48.6893 40.8472 48.8919 40.7619 49.1135C40.6767 49.3352 40.6361 49.5715 40.6423 49.8089C40.6602 50.2879 40.8647 50.7408 41.212 51.0706C41.5593 51.4005 42.0217 51.5811 42.5003 51.5738C42.9746 51.5562 43.423 51.353 43.7493 51.0079C44.0756 50.6627 44.2536 50.2032 44.2452 49.7281V49.7281ZM21.4667 47.9539C20.9896 47.9606 20.5345 48.1558 20.2006 48.497C19.8667 48.8383 19.681 49.2978 19.684 49.7755C19.687 50.2532 19.8785 50.7104 20.2167 51.0474C20.5548 51.3843 21.0123 51.5738 21.4894 51.5745C21.7273 51.5737 21.9627 51.5259 22.182 51.4338C22.4014 51.3418 22.6005 51.2073 22.7679 51.038C22.9352 50.8688 23.0676 50.6682 23.1574 50.4476C23.2472 50.2271 23.2927 49.9909 23.2912 49.7528C23.2897 49.5146 23.2413 49.2791 23.1487 49.0597C23.0561 48.8403 22.9212 48.6413 22.7517 48.4742C22.5823 48.3071 22.3815 48.1751 22.161 48.0858C21.9405 47.9965 21.7045 47.9517 21.4667 47.9539Z" fill="white"/>
<path d="M32.1333 39.642C30.4527 39.642 28.7717 39.6239 27.0913 39.6484C26.0289 39.7237 24.9761 39.404 24.1345 38.7504C23.5255 38.2578 23.0761 37.5953 22.8433 36.8468C22.6105 36.0983 22.6048 35.2975 22.8269 34.5458C23.0318 33.7919 23.4579 33.1169 24.0502 32.6082C24.6424 32.0995 25.3736 31.7805 26.1489 31.6926C26.4219 31.6619 26.6971 31.6576 26.9709 31.6797C27.1133 31.6845 27.1804 31.6601 27.2334 31.5053C27.5657 30.4971 28.2152 29.6238 29.0847 29.0162C29.9542 28.4086 30.9969 28.0993 32.0566 28.1348C32.969 28.1506 33.8567 28.4342 34.6097 28.9504C34.6772 29.0034 34.7554 29.0411 34.8389 29.0608C34.9224 29.0806 35.0092 29.0821 35.0932 29.065C35.9212 28.9202 36.7728 29.1078 37.4637 29.5871C38.1545 30.0664 38.629 30.7989 38.7844 31.626C38.7927 31.7173 38.8267 31.8045 38.8826 31.8771C38.9386 31.9498 39.014 32.0051 39.1001 32.0364C39.8749 32.3937 40.5145 32.9908 40.9248 33.7397C41.3351 34.4885 41.4944 35.3495 41.3791 36.1958C41.2639 37.042 40.8802 37.8289 40.2846 38.4404C39.6891 39.0519 38.9131 39.4557 38.0711 39.5923C37.8826 39.6241 37.6918 39.6402 37.5007 39.6405C36.602 39.6426 35.7032 39.6412 34.8045 39.6411C33.9141 39.6411 33.0238 39.6411 32.1334 39.6411L32.1333 39.642ZM32.7249 38.4974C33.4907 38.4974 34.2565 38.4974 35.0224 38.4974C35.7965 38.4974 36.5705 38.4988 37.3446 38.496C37.5194 38.5015 37.6943 38.4921 37.8674 38.468C38.5053 38.3662 39.0896 38.05 39.5241 37.5714C39.9587 37.0929 40.2176 36.4805 40.2583 35.835C40.299 35.1895 40.1191 34.5494 39.7481 34.0199C39.3771 33.4905 38.8372 33.1032 38.2171 32.9219C38.1359 32.9108 38.0578 32.8835 37.9873 32.8416C37.9168 32.7997 37.8555 32.7441 37.8069 32.678C37.7583 32.6119 37.7234 32.5368 37.7044 32.4569C37.6854 32.3771 37.6826 32.2943 37.6961 32.2133C37.6959 31.8914 37.6201 31.574 37.4749 31.2868C37.3297 30.9995 37.1192 30.7504 36.8603 30.5596C36.6013 30.3687 36.3012 30.2414 35.9842 30.1879C35.6671 30.1344 35.342 30.1563 35.0349 30.2516C34.8998 30.3008 34.7539 30.3119 34.613 30.2837C34.4722 30.2555 34.3417 30.1892 34.2359 30.0919C33.8137 29.7495 33.3209 29.5053 32.793 29.3769C32.265 29.2486 31.7152 29.2393 31.1833 29.3497C30.4428 29.4913 29.7619 29.8525 29.229 30.3864C28.696 30.9204 28.3358 31.6024 28.1949 32.344C28.097 32.8419 27.8455 33.0021 27.3613 32.8902C26.9067 32.7765 26.4314 32.7749 25.976 32.8854C25.316 33.0505 24.7363 33.4459 24.3412 34.0004C23.9461 34.555 23.7614 35.2325 23.8204 35.9112C23.8832 36.6248 24.2137 37.2881 24.7453 37.7675C25.277 38.2468 25.9703 38.5067 26.6856 38.4947C27.1092 38.4954 27.5325 38.5072 27.9564 38.5035C29.5458 38.4894 31.1354 38.4978 32.7249 38.4974V38.4974Z" fill="white"/>
<path d="M71.7648 39.0297L69.758 24.3558H72.1612C72.4998 27.5224 72.9515 32.3908 73.0639 35.1615H73.1052C73.4413 32.0549 74.0536 27.5706 74.4695 24.3558H76.6682C77.1035 27.6787 77.713 31.8231 78.0105 35.0598H78.0571C78.2299 32.1942 78.6587 27.6806 78.9973 24.3558H81.2821L79.1165 39.0297H76.8107C76.3975 35.739 75.823 31.8254 75.5096 28.8057H75.4682C75.1277 31.8891 74.4892 35.8665 74.0513 39.0297H71.7648Z" fill="white"/>
<path d="M87.9299 36.7018C87.9299 37.4178 87.9325 38.5971 87.9738 39.0297H85.9094C85.8628 38.8161 85.7831 38.3577 85.7637 38.1961C85.5828 38.5281 85.3093 38.8002 84.9767 38.9795C84.644 39.1587 84.2665 39.2372 83.8901 39.2054C82.1833 39.2054 81.4943 37.6219 81.4943 35.9061V35.7084C81.4943 32.9069 83.3795 32.162 85.4259 32.162H85.6864V30.7106C85.6864 29.8196 85.5803 29.3187 84.8915 29.3187C84.2221 29.3187 84.0669 29.8416 84.0669 30.5478V30.7333H81.8452V30.5865C81.8452 28.9408 82.4762 27.4837 84.9715 27.4837C87.1629 27.4837 87.9299 28.6945 87.9299 30.5311V36.7018ZM85.7277 33.8756H85.3514C84.3204 33.8756 83.6411 34.2665 83.6411 35.6837V35.8621C83.6411 36.6642 83.9316 37.2349 84.6371 37.2349C85.3933 37.2349 85.7277 36.7116 85.7277 35.1783V33.8756Z" fill="white"/>
<path d="M91.5287 35.4708V35.9903C91.5287 36.6911 91.726 37.2983 92.449 37.2983C93.0631 37.2983 93.3256 36.9241 93.3256 36.1667C93.3256 35.4325 93.1185 34.9248 91.7432 34.0372C90.1821 33.0321 89.43 32.2079 89.43 30.5812C89.43 28.6585 90.4614 27.4837 92.4376 27.4837C94.5841 27.4837 95.4373 28.6691 95.4373 30.7527V31.2077H93.2543V30.5064C93.2543 29.7149 92.9885 29.3908 92.4516 29.3908C91.8946 29.3908 91.6734 29.7961 91.6734 30.3968C91.6734 31.0335 91.8866 31.3234 92.9195 31.984C94.9066 33.2495 95.6077 34.0547 95.6077 35.9163C95.6077 38.0928 94.5166 39.2054 92.3832 39.2054C89.8311 39.2054 89.2466 37.5999 89.2466 35.9762V35.4708H91.5287Z" fill="white"/>
<path d="M96.9377 30.9557C96.9377 28.6926 96.9377 28.1728 96.9157 27.6594H99.0741C99.1251 27.9909 99.1526 28.3257 99.1565 28.6611C99.3386 28.2919 99.6243 27.9838 99.9785 27.7747C100.333 27.5655 100.74 27.4644 101.151 27.4837C101.549 27.4466 101.948 27.5484 102.279 27.772C102.611 27.9956 102.855 28.3272 102.971 28.7104C103.185 28.3233 103.502 28.0035 103.887 27.7868C104.272 27.5701 104.71 27.4652 105.152 27.4837C106.385 27.4837 107.394 28.106 107.394 30.328V39.0297H105.134V30.7413C105.134 29.9486 104.925 29.5122 104.289 29.5122C103.494 29.5122 103.306 30.1288 103.306 31.2509V39.0297H101.026V30.7955C101.026 29.76 100.719 29.5122 100.176 29.5122C99.3697 29.5122 99.1978 30.1341 99.1978 31.219V39.0297H96.9377V30.9557Z" fill="white"/>
<path d="M114.599 32.3266H111.378V36.9484H115.091L114.804 39.0297H109.118V24.3558H114.777V26.4565H111.378V30.2453H114.599L114.599 32.3266Z" fill="white"/>
<path d="M122.587 23.7161V35.8769C122.587 37.6091 122.587 38.412 122.609 39.0297H120.451C120.409 38.7432 120.368 38.1281 120.368 37.9483C120.21 38.343 119.931 38.6774 119.571 38.9033C119.211 39.1292 118.789 39.235 118.366 39.2054C116.326 39.2054 115.932 37.5753 115.932 35.3726V30.9204C115.932 28.9435 116.686 27.4837 118.538 27.4837C119.296 27.4837 120.016 27.7068 120.327 28.2851V23.7161H122.587ZM118.195 31.0612V35.5554C118.195 36.605 118.443 37.1768 119.223 37.1768C120.147 37.1768 120.327 36.3485 120.327 35.05V31.5515C120.327 30.3213 120.215 29.5123 119.25 29.5123C118.465 29.5123 118.195 30.1088 118.195 31.0612Z" fill="white"/>
<path d="M130.81 38.396C130.81 40.9171 130.567 43.017 127.333 43.017C124.63 43.017 124.175 41.3185 124.175 40.0576V40.011H126.438V40.0603C126.424 40.2007 126.44 40.3425 126.485 40.4762C126.53 40.6099 126.603 40.7323 126.7 40.8354C126.796 40.9384 126.913 41.0196 127.043 41.0737C127.174 41.1277 127.314 41.1532 127.455 41.1486C128.393 41.1486 128.55 40.4284 128.55 38.9944V37.7528C128.38 38.0951 128.11 38.3778 127.776 38.5642C127.443 38.7505 127.061 38.8318 126.68 38.7975C124.611 38.7975 124.158 37.1867 124.158 35.2344V30.9398C124.158 29.3935 124.739 27.4837 126.919 27.4837C128.113 27.4837 128.603 28.0407 128.793 28.6623C128.799 28.3256 128.834 27.9901 128.897 27.6594H130.854C130.832 28.3606 130.81 29.3016 130.81 30.5003L130.81 38.396ZM126.421 31.0779V35.0693C126.421 36.2244 126.691 36.808 127.425 36.808C128.389 36.808 128.553 36.0483 128.553 34.6546V31.3238C128.553 30.3558 128.455 29.5123 127.542 29.5123C126.818 29.5123 126.421 29.976 126.421 31.0779Z" fill="white"/>
<path d="M134.587 33.9465V35.6169C134.587 36.4953 134.79 37.2983 135.647 37.2983C136.548 37.2983 136.659 36.4915 136.659 35.6738V35.6196H138.861V35.6712C138.861 36.8645 138.607 39.2054 135.7 39.2054C132.808 39.2054 132.384 37.4117 132.384 35.1134V31.3871C132.384 29.8321 132.874 27.4837 135.689 27.4837C138.113 27.4837 138.902 29.1207 138.902 31.3704V33.9465H134.587ZM136.739 32.1749V31.0107C136.739 29.9593 136.497 29.3908 135.686 29.3908C134.958 29.3908 134.606 29.9084 134.606 31.0134V32.1749H136.739Z" fill="white"/>
<path d="M142.701 32.4682V39.0297H140.44V24.3558H143.571C145.801 24.3558 147.117 25.2502 147.117 27.8916V28.4505C147.117 30.7052 146.193 31.279 145.626 31.5119C146.48 31.9134 146.969 32.53 146.969 34.5214C146.93 36.0255 146.975 37.5306 147.103 39.0297H144.92C144.726 38.1433 144.767 35.733 144.767 34.6671C144.767 32.8784 144.537 32.4682 143.225 32.4682H142.701ZM142.701 30.5994H143.219C144.415 30.5994 144.854 30.1482 144.854 28.5526V28.0491C144.854 26.9149 144.62 26.2243 143.339 26.2243H142.701V30.5994Z" fill="white"/>
<path d="M155.125 35.7091C155.125 37.3813 155.125 38.4332 155.147 39.0297H152.989C152.938 38.6725 152.91 38.3124 152.906 37.9517C152.505 38.9454 151.717 39.2054 150.788 39.2054C149.731 39.2054 148.53 38.6984 148.53 36.2468V27.6594H150.79V35.6597C150.79 36.7051 151.091 37.1795 151.769 37.1795C152.506 37.1795 152.865 36.7158 152.865 35.2355V27.6594H155.125L155.125 35.7091Z" fill="white"/>
<path d="M157.022 31.1674C157.022 28.8573 157.022 28.1754 157 27.6594H159.158C159.209 28.0019 159.237 28.3475 159.241 28.6938C159.427 28.3043 159.727 27.9804 160.101 27.7644C160.474 27.5485 160.904 27.4506 161.334 27.4837C162.715 27.4837 163.667 28.3231 163.667 30.4715V39.0297H161.406V30.8988C161.406 29.8724 161.053 29.5123 160.43 29.5123C159.625 29.5123 159.282 29.9403 159.282 31.4843V39.0297H157.022V31.1674Z" fill="white"/>
<path d="M164.561 27.6594H165.767V24.9304H168.024V27.6594H169.448V29.6439H168.024V36.3671C168.024 36.9048 168.098 37.3343 168.783 37.3343C168.991 37.3386 169.198 37.3164 169.399 37.2683V38.9743C168.96 39.1421 168.491 39.2189 168.02 39.2001C166.601 39.2001 165.767 38.7413 165.767 36.7723V29.6439H164.561V27.6594Z" fill="white"/>
<path d="M170.622 27.6594H172.883V39.0297H170.622V27.6594ZM170.642 23.7161H172.902V26.1344H170.642V23.7161Z" fill="white"/>
<path d="M174.79 30.9557C174.79 28.6926 174.79 28.1728 174.768 27.6594H176.927C176.978 27.9909 177.005 28.3257 177.009 28.6612C177.191 28.2918 177.477 27.9837 177.831 27.7746C178.186 27.5655 178.593 27.4644 179.004 27.4837C179.402 27.4467 179.801 27.5486 180.132 27.7722C180.464 27.9957 180.708 28.3273 180.823 28.7105C181.037 28.3233 181.355 28.0035 181.74 27.7869C182.125 27.5702 182.563 27.4652 183.005 27.4837C184.238 27.4837 185.247 28.106 185.247 30.3281V39.0297H182.987V30.7413C182.987 29.9486 182.778 29.5123 182.142 29.5123C181.347 29.5123 181.158 30.1289 181.158 31.2509V39.0297H178.879V30.7956C178.879 29.76 178.572 29.5123 178.029 29.5123C177.222 29.5123 177.05 30.1342 177.05 31.219V39.0297H174.79V30.9557Z" fill="white"/>
<path d="M189.033 33.9465V35.6169C189.033 36.4953 189.235 37.2983 190.094 37.2983C190.994 37.2983 191.105 36.4915 191.105 35.6738V35.6196H193.307V35.6712C193.307 36.8645 193.053 39.2054 190.146 39.2054C187.254 39.2054 186.83 37.4117 186.83 35.1134V31.3871C186.83 29.8321 187.32 27.4837 190.135 27.4837C192.559 27.4837 193.348 29.1207 193.348 31.3704V33.9465H189.033ZM191.185 32.1749V31.0107C191.185 29.9593 190.943 29.3908 190.132 29.3908C189.404 29.3908 189.052 29.9084 189.052 31.0134V32.1749H191.185Z" fill="white"/>
</svg>
