<svg width="198" height="64" viewBox="0 0 198 64" fill="none" xmlns="http://www.w3.org/2000/svg">
<path d="M59.2137 3.91786C52.2372 3.93809 45.2606 3.94275 38.284 3.93186C38.2422 4.72509 38.1129 5.51128 37.8984 6.27611C37.4179 7.70113 36.4501 8.91097 35.1654 9.69266C33.8807 10.4743 32.3614 10.7778 30.8749 10.5495C29.3885 10.3213 28.0302 9.57597 27.0392 8.44482C26.0482 7.31368 25.488 5.8692 25.4572 4.36567C25.4537 4.22104 25.4493 4.07646 25.4453 3.93186H4.0112C3.78363 4.05256 3.9092 4.26225 3.90914 4.42149C3.90199 22.8627 3.89975 41.304 3.90242 59.7452H52.8092C54.9671 59.7452 57.125 59.7482 59.2829 59.7385C59.4241 59.7378 59.6202 59.8614 59.7182 59.6364C59.7182 41.2444 59.7216 22.8524 59.7285 4.46035C59.7288 4.04467 59.6806 3.9165 59.2137 3.91786Z" fill="#654FEF"/>
<path d="M16.9902 32.3263C16.576 32.7925 16.0282 33.1197 15.4214 33.2634C15.0381 33.351 14.6412 33.361 14.2541 33.2929C13.8669 33.2247 13.4972 33.0799 13.1669 32.8668C12.8365 32.6537 12.5522 32.3767 12.3305 32.052C12.1088 31.7274 11.9542 31.3616 11.876 30.9764C11.7978 30.5911 11.7974 30.1941 11.8748 29.8087C11.9523 29.4233 12.1061 29.0573 12.3271 28.7322C12.5482 28.4071 12.832 28.1295 13.1619 27.9157C13.4919 27.702 13.8612 27.5564 14.2482 27.4875C14.9634 27.3559 15.702 27.4952 16.3201 27.8783C16.9382 28.2614 17.3916 28.8608 17.592 29.5598C17.6549 29.7687 17.7095 29.6926 17.8147 29.6163C19.9217 28.0885 22.0295 26.5619 24.1383 25.0365C25.3109 24.189 26.4898 23.3503 27.6616 22.5019C28.6576 21.7808 29.6475 21.0515 30.6396 20.3252C30.6569 20.3092 30.6724 20.2913 30.6857 20.2718C30.0654 19.9429 29.5809 19.4058 29.3176 18.7549C29.0542 18.1041 29.0289 17.3812 29.246 16.7135C29.4462 16.114 29.8336 15.5946 30.3511 15.2317C30.8686 14.8689 31.4889 14.6816 32.1207 14.6976C32.7525 14.7136 33.3626 14.9319 33.8611 15.3204C34.3596 15.709 34.7202 16.2472 34.8899 16.856C35.0681 17.5161 35.0139 18.2173 34.7364 18.8421C34.4589 19.4669 33.975 19.9772 33.3659 20.2876L45.9435 29.754C46.0592 29.2303 46.3159 28.7483 46.6858 28.3599C47.0556 27.9715 47.5246 27.6915 48.042 27.5503C48.43 27.4333 48.8387 27.4014 49.2402 27.4569C49.6417 27.5124 50.0264 27.6539 50.3682 27.8717C50.7282 28.0918 51.0369 28.3866 51.2734 28.736C51.5099 29.0855 51.6687 29.4815 51.7393 29.8976C51.8098 30.3136 51.7904 30.7399 51.6823 31.1478C51.5742 31.5557 51.3799 31.9356 51.1126 32.2621C50.8453 32.5886 50.5111 32.854 50.1326 33.0405C49.754 33.2269 49.3399 33.3301 48.9182 33.343C48.4964 33.3559 48.0768 33.2783 47.6875 33.1154C47.2983 32.9525 46.9485 32.708 46.6616 32.3986C46.5745 32.4614 46.568 32.5666 46.5386 32.6539C46.0367 34.1471 45.5375 35.6411 45.0408 37.136C44.0029 40.2791 42.9664 43.4226 41.9313 46.5666C41.8673 46.7601 41.8836 46.7995 42.1012 46.778C42.8617 46.6773 43.6312 46.8817 44.2415 47.3466C44.8518 47.8114 45.2534 48.4989 45.3584 49.2589C45.4275 49.6696 45.4046 50.0906 45.2915 50.4915C45.1784 50.8924 44.9778 51.2632 44.7043 51.5773C44.2671 52.1057 43.6591 52.4647 42.9854 52.5922C42.3117 52.7198 41.6145 52.608 41.0145 52.2761C40.4145 51.9441 39.9493 51.413 39.6993 50.7744C39.4494 50.1359 39.4304 49.4301 39.6457 48.7791C39.6759 48.6854 39.7102 48.593 39.755 48.4647L24.0875 48.2775C24.3368 48.7487 24.4555 49.2779 24.4313 49.8104C24.4071 50.3429 24.2409 50.8592 23.9499 51.3058C23.7345 51.6495 23.4482 51.9431 23.1101 52.1671C22.772 52.3911 22.39 52.5402 21.9895 52.6045C21.5711 52.6767 21.1421 52.658 20.7316 52.5498C20.321 52.4416 19.9386 52.2463 19.6101 51.9772C19.2817 51.7081 19.015 51.3715 18.8282 50.9903C18.6413 50.609 18.5387 50.192 18.5272 49.7676C18.5158 49.3432 18.5957 48.9213 18.7617 48.5305C18.9277 48.1397 19.1758 47.7892 19.4892 47.5028C19.8026 47.2163 20.174 47.0007 20.5781 46.8704C20.9822 46.7402 21.4096 46.6984 21.8313 46.7479C20.2194 41.9463 18.6112 37.1553 16.9902 32.3263ZM18.2712 30.7062C19.5212 31.2138 20.7294 31.7028 21.936 32.1957C22.0165 32.2154 22.0918 32.2522 22.1568 32.3035C22.2219 32.3548 22.2752 32.4194 22.3131 32.493C22.3511 32.5667 22.3728 32.6476 22.3768 32.7303C22.3808 32.8131 22.367 32.8957 22.3364 32.9727C22.3057 33.0497 22.2589 33.1191 22.1991 33.1765C22.1393 33.2338 22.0679 33.2777 21.9897 33.3051C21.9116 33.3324 21.8284 33.3428 21.7459 33.3353C21.6634 33.3278 21.5835 33.3027 21.5115 33.2617C20.8109 32.9783 20.1124 32.6897 19.4124 32.4047C18.9705 32.2248 18.5274 32.0477 18.0387 31.8507C19.6912 36.7729 21.3265 41.644 22.9735 46.55C23.0865 46.4188 23.1727 46.3194 23.2581 46.2194C24.3988 44.8851 25.5395 43.5508 26.6804 42.2167C26.7241 42.145 26.7829 42.0838 26.8526 42.037C26.9223 41.9903 27.0013 41.9592 27.0841 41.9459C27.167 41.9325 27.2517 41.9373 27.3326 41.9599C27.4134 41.9825 27.4884 42.0223 27.5524 42.0766C27.6151 42.1315 27.6655 42.1991 27.7001 42.2749C27.7347 42.3508 27.7527 42.4331 27.7531 42.5165C27.7534 42.5999 27.736 42.6824 27.702 42.7585C27.668 42.8346 27.6182 42.9027 27.5559 42.9581C26.5928 44.0829 25.6297 45.2077 24.6665 46.3325C24.4491 46.5867 24.2345 46.8433 23.9903 47.1323L39.7885 47.3203C39.688 47.1722 39.6192 47.0692 39.5488 46.9673C38.6144 45.6121 37.6802 44.2569 36.7461 42.9015C36.6933 42.8399 36.6538 42.768 36.63 42.6904C36.6063 42.6128 36.5989 42.5312 36.6082 42.4505C36.6175 42.3699 36.6434 42.2921 36.6843 42.222C36.7251 42.1518 36.78 42.0909 36.8455 42.043C36.9142 41.9951 36.9924 41.9626 37.0748 41.9477C37.1572 41.9328 37.2418 41.9359 37.3229 41.9568C37.404 41.9777 37.4796 42.0158 37.5446 42.0686C37.6096 42.1214 37.6624 42.1876 37.6994 42.2627C38.4203 43.3111 39.1423 44.3587 39.8654 45.4055C40.1371 45.7995 40.4095 46.193 40.7104 46.6282C42.3443 41.6942 43.9613 36.8114 45.5935 31.8827C45.1145 32.0697 44.684 32.2369 44.2541 32.4059C43.5121 32.6977 42.7704 32.9903 42.029 33.2836C41.9261 33.3311 41.8115 33.347 41.6995 33.3294C41.5876 33.3118 41.4834 33.2614 41.4 33.1847C41.324 33.1186 41.2681 33.0325 41.2386 32.9362C41.209 32.8399 41.207 32.7373 41.2327 32.6399C41.2605 32.5306 41.3172 32.4307 41.3968 32.3509C41.4764 32.271 41.5761 32.214 41.6854 32.186C42.4036 31.9033 43.1219 31.6208 43.8403 31.3384C44.3321 31.145 44.8239 30.9514 45.3519 30.7436L32.6161 21.1584C32.6161 22.4415 32.6164 23.6557 32.616 24.8698C32.6159 25.2609 32.6224 25.6523 32.6101 26.043C32.6039 26.1711 32.5545 26.2932 32.47 26.3896C32.3855 26.486 32.2709 26.5509 32.1448 26.5738C32.0187 26.5967 31.8886 26.5763 31.7756 26.5158C31.6626 26.4552 31.5734 26.3583 31.5226 26.2406C31.4749 26.0983 31.4576 25.9475 31.4719 25.798C31.4706 24.3165 31.4739 22.835 31.4734 21.3535C31.4733 21.2955 31.5164 21.2199 31.4152 21.1706L18.2712 30.7062ZM50.6323 30.4052C50.6362 30.1682 50.5929 29.9327 50.505 29.7126C50.4171 29.4924 50.2863 29.2919 50.1201 29.1228C49.954 28.9537 49.7559 28.8193 49.5373 28.7274C49.3187 28.6356 49.0841 28.5881 48.847 28.5878C48.4908 28.5847 48.1416 28.6872 47.8436 28.8825C47.5457 29.0778 47.3123 29.357 47.1731 29.6849C47.0338 30.0129 46.9949 30.3747 47.0613 30.7247C47.1277 31.0747 47.2964 31.3972 47.546 31.6514C47.7957 31.9055 48.1151 32.0799 48.4638 32.1525C48.8126 32.2252 49.1751 32.1927 49.5054 32.0594C49.8358 31.926 50.1192 31.6976 50.3197 31.4032C50.5203 31.1088 50.6291 30.7615 50.6323 30.4052V30.4052ZM16.5628 30.3899C16.5633 29.914 16.3752 29.4572 16.0397 29.1196C15.7042 28.782 15.2486 28.5911 14.7727 28.5887C14.2968 28.5863 13.8392 28.7726 13.5004 29.1068C13.1615 29.441 12.9688 29.8958 12.9645 30.3718C12.9624 30.6086 13.0071 30.8435 13.096 31.0631C13.1849 31.2826 13.3162 31.4825 13.4826 31.6511C13.6489 31.8198 13.8468 31.9539 14.0651 32.0459C14.2834 32.1378 14.5177 32.1858 14.7545 32.187C14.9914 32.1882 15.2262 32.1426 15.4453 32.0528C15.6645 31.9631 15.8639 31.8309 16.0319 31.664C16.1999 31.497 16.3332 31.2985 16.4244 31.0799C16.5155 30.8612 16.5625 30.6268 16.5628 30.3899V30.3899ZM32.0546 15.8426C31.8176 15.8397 31.5825 15.8841 31.3628 15.9731C31.1431 16.0621 30.9434 16.1938 30.7751 16.3608C30.6069 16.5277 30.4736 16.7264 30.3829 16.9454C30.2922 17.1644 30.246 17.3992 30.247 17.6362C30.2457 17.8748 30.2918 18.1113 30.3827 18.3319C30.4736 18.5525 30.6075 18.7528 30.7766 18.9212C30.9457 19.0896 31.1465 19.2227 31.3675 19.3127C31.5885 19.4027 31.8252 19.4479 32.0638 19.4456C32.3024 19.4433 32.5381 19.3936 32.7573 19.2993C32.9765 19.205 33.1748 19.0681 33.3406 18.8965C33.5064 18.7249 33.6364 18.522 33.723 18.2997C33.8097 18.0773 33.8512 17.84 33.8453 17.6015C33.8387 17.1315 33.647 16.6831 33.3117 16.3538C32.9764 16.0244 32.5246 15.8407 32.0546 15.8425V15.8426ZM44.2452 49.664C44.2408 49.4268 44.1896 49.1929 44.0945 48.9755C43.9995 48.7582 43.8625 48.5618 43.6913 48.3975C43.5202 48.2333 43.3183 48.1044 43.0973 48.0184C42.8762 47.9323 42.6404 47.8907 42.4032 47.8961C42.1661 47.9014 41.9323 47.9535 41.7153 48.0493C41.4984 48.1452 41.3025 48.2829 41.1389 48.4547C40.9753 48.6265 40.8472 48.8288 40.762 49.0502C40.6767 49.2716 40.6361 49.5076 40.6423 49.7447C40.6602 50.223 40.8647 50.6753 41.212 51.0048C41.5593 51.3342 42.0217 51.5146 42.5003 51.5073C42.9746 51.4897 43.4231 51.2867 43.7493 50.9421C44.0756 50.5974 44.2536 50.1385 44.2452 49.664V49.664ZM21.4667 47.892C20.9896 47.8987 20.5345 48.0937 20.2006 48.4345C19.8667 48.7753 19.681 49.2342 19.684 49.7113C19.687 50.1884 19.8785 50.645 20.2167 50.9815C20.5548 51.3181 21.0123 51.5073 21.4894 51.508C21.7273 51.5072 21.9627 51.4594 22.182 51.3675C22.4014 51.2756 22.6005 51.1412 22.7679 50.9722C22.9352 50.8032 23.0676 50.6028 23.1574 50.3825C23.2472 50.1623 23.2927 49.9265 23.2912 49.6886C23.2897 49.4507 23.2413 49.2155 23.1487 48.9964C23.0561 48.7773 22.9212 48.5786 22.7517 48.4117C22.5823 48.2448 22.3815 48.113 22.161 48.0238C21.9405 47.9346 21.7045 47.8898 21.4667 47.892Z" fill="white"/>
<path d="M32.1334 39.5909C30.4527 39.5909 28.7717 39.5729 27.0913 39.5973C26.0289 39.6725 24.9761 39.3532 24.1345 38.7005C23.5255 38.2085 23.0761 37.5469 22.8433 36.7993C22.6105 36.0518 22.6048 35.252 22.8269 34.5012C23.0318 33.7483 23.4579 33.0742 24.0502 32.5662C24.6424 32.0581 25.3736 31.7396 26.1489 31.6517C26.4219 31.6211 26.6971 31.6168 26.9709 31.6389C27.1133 31.6437 27.1804 31.6193 27.2334 31.4647C27.5657 30.4578 28.2152 29.5856 29.0847 28.9788C29.9542 28.372 30.9969 28.0631 32.0566 28.0986C32.969 28.1143 33.8568 28.3975 34.6097 28.9131C34.6772 28.966 34.7554 29.0036 34.8389 29.0234C34.9224 29.0431 35.0092 29.0446 35.0932 29.0276C35.9212 28.8829 36.7728 29.0702 37.4637 29.5489C38.1545 30.0276 38.629 30.7592 38.7844 31.5852C38.7927 31.6765 38.8267 31.7635 38.8827 31.8361C38.9386 31.9087 39.014 31.9638 39.1001 31.9951C39.8749 32.352 40.5145 32.9483 40.9248 33.6962C41.3351 34.444 41.4944 35.3039 41.3791 36.1491C41.2639 36.9943 40.8802 37.7801 40.2846 38.3908C39.6891 39.0015 38.9132 39.4048 38.0711 39.5413C37.8826 39.573 37.6918 39.5891 37.5007 39.5895C36.602 39.5915 35.7032 39.5901 34.8045 39.59C33.9141 39.59 33.0238 39.59 32.1334 39.59L32.1334 39.5909ZM32.7249 38.4478C33.4907 38.4478 34.2565 38.4478 35.0224 38.4478C35.7965 38.4477 36.5705 38.4492 37.3446 38.4463C37.5194 38.4518 37.6943 38.4425 37.8674 38.4184C38.5053 38.3167 39.0896 38.0009 39.5241 37.523C39.9587 37.0451 40.2176 36.4335 40.2583 35.7888C40.299 35.1442 40.1191 34.5049 39.7481 33.9761C39.3771 33.4473 38.8372 33.0605 38.2171 32.8794C38.1359 32.8684 38.0578 32.8411 37.9873 32.7993C37.9168 32.7575 37.8555 32.7019 37.8069 32.6359C37.7583 32.5699 37.7234 32.4948 37.7044 32.4151C37.6854 32.3354 37.6826 32.2527 37.6961 32.1718C37.6959 31.8503 37.6201 31.5333 37.4749 31.2464C37.3297 30.9596 37.1192 30.7108 36.8603 30.5202C36.6013 30.3296 36.3012 30.2024 35.9842 30.149C35.6671 30.0956 35.342 30.1174 35.0349 30.2126C34.8998 30.2617 34.7539 30.2728 34.613 30.2447C34.4722 30.2165 34.3417 30.1503 34.2359 30.0531C33.8137 29.7112 33.3209 29.4673 32.793 29.3391C32.265 29.2109 31.7152 29.2016 31.1833 29.3119C30.4428 29.4533 29.7619 29.814 29.229 30.3473C28.6961 30.8805 28.3358 31.5617 28.1949 32.3023C28.097 32.7996 27.8455 32.9596 27.3613 32.8478C26.9067 32.7343 26.4314 32.7327 25.976 32.8431C25.316 33.0079 24.7363 33.4028 24.3412 33.9566C23.9461 34.5105 23.7614 35.1871 23.8204 35.8649C23.8832 36.5776 24.2137 37.24 24.7453 37.7188C25.277 38.1975 25.9703 38.4571 26.6856 38.4451C27.1092 38.4457 27.5325 38.4576 27.9564 38.4538C29.5458 38.4398 31.1354 38.4482 32.7249 38.4478V38.4478Z" fill="white"/>
<path d="M71.7648 38.9794L69.758 24.3245H72.1612C72.4998 27.4869 72.9515 32.349 73.0639 35.1162H73.1052C73.4413 32.0136 74.0536 27.535 74.4695 24.3245H76.6682C77.1035 27.643 77.713 31.7821 78.0105 35.0147H78.0571C78.2299 32.1527 78.6587 27.645 78.9973 24.3245H81.2821L79.1165 38.9794H76.8107C76.3975 35.693 75.823 31.7844 75.5095 28.7686H75.4682C75.1277 31.848 74.4892 35.8203 74.0513 38.9794H71.7648Z" fill="white"/>
<path d="M87.9299 36.6544C87.9299 37.3695 87.9325 38.5474 87.9738 38.9794H85.9094C85.8628 38.766 85.7831 38.3082 85.7637 38.1468C85.5828 38.4784 85.3094 38.7502 84.9767 38.9292C84.644 39.1081 84.2665 39.1865 83.8901 39.1548C82.1833 39.1548 81.4943 37.5734 81.4943 35.8597V35.6623C81.4943 32.8644 83.3795 32.1205 85.4259 32.1205H85.6864V30.671C85.6864 29.7812 85.5803 29.2809 84.8915 29.2809C84.2221 29.2809 84.0669 29.8031 84.0669 30.5084V30.6937H81.8452V30.547C81.8452 28.9035 82.4762 27.4482 84.9715 27.4482C87.1629 27.4482 87.9299 28.6575 87.9299 30.4917V36.6544ZM85.7277 33.8319H85.3514C84.3204 33.8319 83.6412 34.2222 83.6412 35.6377V35.8158C83.6412 36.6169 83.9316 37.1869 84.6371 37.1869C85.3933 37.1869 85.7277 36.6643 85.7277 35.1329V33.8319Z" fill="white"/>
<path d="M91.5287 35.425V35.9439C91.5287 36.6438 91.726 37.2501 92.449 37.2501C93.0631 37.2501 93.3256 36.8765 93.3256 36.1201C93.3256 35.3868 93.1185 34.8797 91.7432 33.9933C90.1821 32.9894 89.43 32.1663 89.43 30.5417C89.43 28.6215 90.4614 27.4482 92.4376 27.4482C94.5841 27.4482 95.4373 28.6321 95.4373 30.713V31.1674H93.2543V30.4671C93.2543 29.6765 92.9885 29.3529 92.4517 29.3529C91.8946 29.3529 91.6735 29.7576 91.6735 30.3575C91.6735 30.9934 91.8866 31.283 92.9195 31.9428C94.9066 33.2066 95.6077 34.0108 95.6077 35.87C95.6077 38.0437 94.5166 39.1548 92.3833 39.1548C89.8311 39.1548 89.2466 37.5514 89.2466 35.9298V35.425H91.5287Z" fill="white"/>
<path d="M96.9377 30.9158C96.9377 28.6556 96.9377 28.1365 96.9157 27.6237H99.0741C99.1251 27.9549 99.1526 28.2892 99.1565 28.6242C99.3386 28.2554 99.6242 27.9477 99.9785 27.7389C100.333 27.53 100.74 27.429 101.151 27.4483C101.549 27.4112 101.948 27.5129 102.279 27.7362C102.611 27.9596 102.855 28.2907 102.971 28.6734C103.185 28.2868 103.502 27.9674 103.887 27.751C104.272 27.5346 104.71 27.4298 105.152 27.4483C106.385 27.4483 107.394 28.0698 107.394 30.289V38.9794H105.134V30.7017C105.134 29.91 104.925 29.4742 104.289 29.4742C103.494 29.4742 103.306 30.09 103.306 31.2106V38.9794H101.026V30.7559C101.026 29.7217 100.719 29.4742 100.176 29.4742C99.3697 29.4742 99.1978 30.0953 99.1978 31.1788V38.9794H96.9377V30.9158Z" fill="white"/>
<path d="M114.599 32.285H111.378V36.9008H115.091L114.804 38.9794H109.118V24.3245H114.777V26.4224H111.378V30.2063H114.599L114.599 32.285Z" fill="white"/>
<path d="M122.587 23.6855V35.8306C122.587 37.5606 122.587 38.3624 122.609 38.9794H120.451C120.409 38.6933 120.368 38.079 120.368 37.8994C120.21 38.2936 119.931 38.6275 119.571 38.8531C119.211 39.0788 118.789 39.1844 118.366 39.1549C116.326 39.1549 115.932 37.5268 115.932 35.327V30.8806C115.932 28.9062 116.686 27.4483 118.538 27.4483C119.296 27.4483 120.016 27.6711 120.327 28.2487V23.6855H122.587ZM118.195 31.0211V35.5096C118.195 36.5578 118.443 37.1289 119.223 37.1289C120.147 37.1289 120.327 36.3016 120.327 35.0048V31.5108C120.327 30.2822 120.215 29.4742 119.251 29.4742C118.465 29.4742 118.195 30.0699 118.195 31.0211V31.0211Z" fill="white"/>
<path d="M130.81 38.3465C130.81 40.8643 130.567 42.9615 127.333 42.9615C124.63 42.9615 124.175 41.2652 124.175 40.006V39.9594H126.438V40.0086C126.424 40.1489 126.44 40.2905 126.485 40.424C126.53 40.5575 126.603 40.6798 126.7 40.7827C126.796 40.8856 126.913 40.9667 127.043 41.0207C127.174 41.0746 127.314 41.1001 127.455 41.0955C128.393 41.0955 128.55 40.3762 128.55 38.9441V37.7041C128.38 38.0459 128.11 38.3283 127.776 38.5144C127.443 38.7006 127.061 38.7818 126.68 38.7474C124.611 38.7474 124.158 37.1387 124.158 35.189V30.8998C124.158 29.3556 124.739 27.4482 126.919 27.4482C128.113 27.4482 128.603 28.0046 128.793 28.6253C128.799 28.2891 128.834 27.9539 128.897 27.6237H130.854C130.832 28.324 130.81 29.2638 130.81 30.461L130.81 38.3465ZM126.421 31.0378V35.0241C126.421 36.1777 126.691 36.7605 127.425 36.7605C128.389 36.7605 128.553 36.0018 128.553 34.6099V31.2834C128.553 30.3166 128.455 29.4742 127.542 29.4742C126.818 29.4742 126.421 29.9373 126.421 31.0378Z" fill="white"/>
<path d="M134.587 33.9028V35.5709C134.587 36.4483 134.79 37.2501 135.647 37.2501C136.548 37.2501 136.659 36.4445 136.659 35.6278V35.5736H138.861V35.6251C138.861 36.817 138.607 39.1548 135.7 39.1548C132.808 39.1548 132.384 37.3634 132.384 35.0681V31.3466C132.384 29.7936 132.874 27.4482 135.689 27.4482C138.113 27.4482 138.902 29.0831 138.902 31.33V33.9028H134.587ZM136.739 32.1334V30.9707C136.739 29.9206 136.497 29.3529 135.686 29.3529C134.958 29.3529 134.606 29.8698 134.606 30.9734V32.1334H136.739Z" fill="white"/>
<path d="M142.701 32.4263V38.9794H140.44V24.3245H143.571C145.801 24.3245 147.117 25.2177 147.117 27.8556V28.4139C147.117 30.6657 146.193 31.2387 145.626 31.4713C146.48 31.8723 146.969 32.4881 146.969 34.4769C146.93 35.9791 146.975 37.4822 147.103 38.9794H144.92C144.726 38.0941 144.767 35.6869 144.767 34.6224C144.767 32.836 144.537 32.4263 143.225 32.4263H142.701ZM142.701 30.5599H143.219C144.415 30.5599 144.854 30.1093 144.854 28.5158V28.0129C144.854 26.8802 144.62 26.1905 143.339 26.1905H142.701V30.5599Z" fill="white"/>
<path d="M155.125 35.6631C155.125 37.3331 155.125 38.3836 155.147 38.9794H152.989C152.938 38.6227 152.91 38.263 152.906 37.9027C152.505 38.8952 151.717 39.1548 150.788 39.1548C149.731 39.1548 148.53 38.6485 148.53 36.2V27.6237H150.79V35.6138C150.79 36.6578 151.091 37.1315 151.769 37.1315C152.506 37.1315 152.865 36.6684 152.865 35.1901V27.6237H155.125L155.125 35.6631Z" fill="white"/>
<path d="M157.022 31.1272C157.022 28.8201 157.022 28.1391 157 27.6237H159.158C159.209 27.9658 159.237 28.3109 159.241 28.6568C159.427 28.2678 159.727 27.9443 160.101 27.7286C160.474 27.513 160.904 27.4152 161.334 27.4482C162.715 27.4482 163.667 28.2865 163.667 30.4322V38.9794H161.406V30.8589C161.406 29.8338 161.053 29.4742 160.43 29.4742C159.625 29.4742 159.282 29.9017 159.282 31.4437V38.9794H157.022V31.1272Z" fill="white"/>
<path d="M164.561 27.6237H165.767V24.8982H168.024V27.6237H169.448V29.6057H168.024V36.3202C168.024 36.8572 168.098 37.2861 168.783 37.2861C168.991 37.2904 169.198 37.2683 169.399 37.2202V38.924C168.96 39.0916 168.491 39.1683 168.02 39.1495C166.601 39.1495 165.767 38.6914 165.767 36.7249V29.6057H164.561V27.6237Z" fill="white"/>
<path d="M170.622 27.6237H172.883V38.9794H170.622V27.6237ZM170.642 23.6855H172.902V26.1007H170.642V23.6855Z" fill="white"/>
<path d="M174.79 30.9158C174.79 28.6556 174.79 28.1364 174.768 27.6237H176.927C176.978 27.9548 177.005 28.2891 177.009 28.6242C177.191 28.2553 177.477 27.9476 177.831 27.7388C178.186 27.5299 178.593 27.4289 179.004 27.4482C179.402 27.4112 179.801 27.513 180.132 27.7363C180.464 27.9596 180.708 28.2907 180.823 28.6734C181.037 28.2868 181.355 27.9674 181.74 27.751C182.125 27.5346 182.563 27.4298 183.005 27.4482C184.238 27.4482 185.247 28.0697 185.247 30.2889V38.9793H182.987V30.7016C182.987 29.91 182.778 29.4742 182.142 29.4742C181.347 29.4742 181.158 30.09 181.158 31.2106V38.9793H178.879V30.7558C178.879 29.7216 178.572 29.4742 178.029 29.4742C177.222 29.4742 177.05 30.0953 177.05 31.1787V38.9793H174.79V30.9158Z" fill="white"/>
<path d="M189.033 33.9028V35.5709C189.033 36.4483 189.235 37.2501 190.094 37.2501C190.994 37.2501 191.105 36.4445 191.105 35.6278V35.5736H193.307V35.6251C193.307 36.817 193.053 39.1548 190.146 39.1548C187.254 39.1548 186.83 37.3634 186.83 35.0681V31.3466C186.83 29.7936 187.32 27.4482 190.135 27.4482C192.559 27.4482 193.348 29.0831 193.348 31.33V33.9028H189.033ZM191.185 32.1334V30.9707C191.185 29.9206 190.943 29.3529 190.132 29.3529C189.404 29.3529 189.052 29.8698 189.052 30.9734V32.1334H191.185Z" fill="white"/>
</svg>
